<?xml version="1.0" encoding="UTF-8" standalone="no"?>
<!-- Created with Inkscape (http://www.inkscape.org/) -->

<svg
   width="71.120003mm"
   height="128.5mm"
   viewBox="0 0 71.120001 128.5"
   version="1.1"
   id="svg1"
   inkscape:version="1.4 (e7c3feb1, 2024-10-09)"
   sodipodi:docname="PoleDancerWorkbench.svg"
   xmlns:inkscape="http://www.inkscape.org/namespaces/inkscape"
   xmlns:sodipodi="http://sodipodi.sourceforge.net/DTD/sodipodi-0.dtd"
   xmlns:xlink="http://www.w3.org/1999/xlink"
   xmlns="http://www.w3.org/2000/svg"
   xmlns:svg="http://www.w3.org/2000/svg">
  <sodipodi:namedview
     id="namedview1"
     pagecolor="#ffffff"
     bordercolor="#666666"
     borderopacity="1.0"
     inkscape:showpageshadow="2"
     inkscape:pageopacity="0.0"
     inkscape:pagecheckerboard="0"
     inkscape:deskcolor="#d1d1d1"
     inkscape:document-units="mm"
     showgrid="true"
     inkscape:zoom="1.6479643"
     inkscape:cx="162.01807"
     inkscape:cy="359.83788"
     inkscape:window-width="1480"
     inkscape:window-height="867"
     inkscape:window-x="30"
     inkscape:window-y="113"
     inkscape:window-maximized="0"
     showguides="true"
     inkscape:current-layer="layer2"
     inkscape:pageshadow="2">
    <inkscape:grid
       id="grid1"
       units="mm"
       originx="0"
       originy="0"
       spacingx="7"
       spacingy="7"
       empcolor="#0099e5"
       empopacity="0.30196078"
       color="#0099e5"
       opacity="0.14901961"
       empspacing="5"
       enabled="true"
       visible="false"
       dotted="false" />
    <sodipodi:guide
       position="3,128.5"
       orientation="-1,0"
       id="guide5"
       inkscape:locked="false"
       inkscape:label="keepout"
       inkscape:color="rgb(0,134,229)" />
    <sodipodi:guide
       position="0,124.5"
       orientation="0,1"
       id="guide6"
       inkscape:locked="false"
       inkscape:label="Keepout"
       inkscape:color="rgb(0,134,229)" />
    <sodipodi:guide
       position="0,4.0000001"
       orientation="0,1"
       id="guide7"
       inkscape:label="Keepout"
       inkscape:locked="false"
       inkscape:color="rgb(0,134,229)" />
    <sodipodi:guide
       position="0,119.5"
       orientation="0,1"
       id="guide8"
       inkscape:locked="false"
       inkscape:label="Title"
       inkscape:color="rgb(0,134,229)" />
    <sodipodi:guide
       position="0,115.5"
       orientation="0,1"
       id="guide9"
       inkscape:locked="false"
       inkscape:label="Body - top"
       inkscape:color="rgb(0,134,229)" />
    <sodipodi:guide
       position="0,6.0000001"
       orientation="0,1"
       id="guide10"
       inkscape:locked="false"
       inkscape:label="footer"
       inkscape:color="rgb(0,134,229)" />
    <sodipodi:guide
       position="0,14"
       orientation="0,1"
       id="guide11"
       inkscape:label="Body - bottom"
       inkscape:locked="false"
       inkscape:color="rgb(0,134,229)" />
    <sodipodi:guide
       position="68.119999,128.5"
       orientation="-1,0"
       id="guide17"
       inkscape:label="keepout"
       inkscape:locked="false"
       inkscape:color="rgb(0,134,229)" />
    <sodipodi:guide
       position="0,53.499999"
       orientation="0,1"
       id="guide20"
       inkscape:locked="false"
       inkscape:label="display bottom"
       inkscape:color="rgb(0,134,229)" />
  </sodipodi:namedview>
  <defs
     id="defs1">
    <linearGradient
       id="linearGradient25"
       inkscape:collect="always">
      <stop
         style="stop-color:#2d2e2c;stop-opacity:1;"
         offset="0"
         id="stop25" />
      <stop
         style="stop-color:#514c45;stop-opacity:0;"
         offset="1"
         id="stop26" />
    </linearGradient>
    <linearGradient
       id="linearGradient21"
       inkscape:collect="always">
      <stop
         style="stop-color:#2e2d2e;stop-opacity:1;"
         offset="0"
         id="stop21" />
      <stop
         style="stop-color:#514c45;stop-opacity:0;"
         offset="1"
         id="stop22" />
    </linearGradient>
    <linearGradient
       id="linearGradient19"
       inkscape:collect="always">
      <stop
         style="stop-color:#2c2d2e;stop-opacity:1;"
         offset="0"
         id="stop19" />
      <stop
         style="stop-color:#514c45;stop-opacity:0;"
         offset="1"
         id="stop20" />
    </linearGradient>
    <linearGradient
       id="linearGradient1"
       inkscape:collect="always">
      <stop
         style="stop-color:#eee9dc;stop-opacity:1;"
         offset="0"
         id="stop1" />
      <stop
         style="stop-color:#d9d4c6;stop-opacity:1;"
         offset="1"
         id="stop2" />
    </linearGradient>
    <inkscape:path-effect
       effect="powerclip"
       message=""
       id="path-effect58"
       is_visible="true"
       lpeversion="1"
       inverse="true"
       flatten="false"
       hide_clip="false" />
    <inkscape:path-effect
       effect="powerclip"
       message=""
       id="path-effect57"
       is_visible="true"
       lpeversion="1"
       inverse="true"
       flatten="false"
       hide_clip="false" />
    <inkscape:path-effect
       effect="powermask"
       id="path-effect55"
       is_visible="true"
       lpeversion="1"
       uri="#mask-powermask-path-effect55"
       invert="false"
       hide_mask="false"
       background="true"
       background_color="#ffffffff" />
    <linearGradient
       id="linearGradient53"
       inkscape:collect="always">
      <stop
         style="stop-color:#000000;stop-opacity:1;"
         offset="0"
         id="stop53" />
      <stop
         style="stop-color:#000000;stop-opacity:0;"
         offset="0.80392158"
         id="stop54" />
    </linearGradient>
    <inkscape:path-effect
       effect="powerclip"
       message=""
       id="path-effect52"
       is_visible="true"
       lpeversion="1"
       inverse="true"
       flatten="false"
       hide_clip="false" />
    <inkscape:path-effect
       effect="powerclip"
       message=""
       id="path-effect49"
       is_visible="true"
       lpeversion="1"
       inverse="true"
       flatten="false"
       hide_clip="false" />
    <inkscape:path-effect
       effect="powerclip"
       message=""
       id="path-effect42"
       is_visible="true"
       lpeversion="1"
       inverse="true"
       flatten="false"
       hide_clip="false" />
    <inkscape:path-effect
       effect="powerclip"
       message=""
       id="path-effect40"
       is_visible="true"
       lpeversion="1"
       inverse="true"
       flatten="false"
       hide_clip="false" />
    <inkscape:path-effect
       effect="powerclip"
       message=""
       id="path-effect38"
       is_visible="true"
       lpeversion="1"
       inverse="true"
       flatten="false"
       hide_clip="false" />
    <clipPath
       clipPathUnits="userSpaceOnUse"
       id="clipPath38">
      <rect
         style="display:block;fill:none;stroke:#000000;stroke-width:0.264999"
         id="rect38"
         width="21.166664"
         height="3.9687502"
         x="47.624996"
         y="11.90625" />
    </clipPath>
    <clipPath
       clipPathUnits="userSpaceOnUse"
       id="clipPath39">
      <rect
         style="display:block;fill:none;stroke:#000000;stroke-width:0.264999"
         id="rect40"
         width="21.166664"
         height="2.6458333"
         x="3.9687498"
         y="11.90625" />
    </clipPath>
    <clipPath
       clipPathUnits="userSpaceOnUse"
       id="clipPath41">
      <rect
         style="display:block;fill:none;stroke:#000000;stroke-width:0.264999"
         id="rect42"
         width="21.166664"
         height="2.6458333"
         x="47.624996"
         y="76.729164" />
    </clipPath>
    <clipPath
       clipPathUnits="userSpaceOnUse"
       id="clipath_lpe_path-effect49">
      <rect
         style="display:block;fill:none;stroke:#000000;stroke-width:0.264999"
         id="rect49"
         width="21.166664"
         height="2.6458333"
         x="3.9687498"
         y="11.90625" />
    </clipPath>
    <clipPath
       clipPathUnits="userSpaceOnUse"
       id="clipPath51">
      <rect
         style="display:none;fill:none;stroke:#000000;stroke-width:0.264999"
         id="rect52"
         width="38.364578"
         height="13.229168"
         x="-41.01041"
         y="104.51042"
         d="m -41.01041,104.51042 h 38.3645779 v 13.22917 H -41.01041 Z" />
    </clipPath>
    <mask
       maskUnits="userSpaceOnUse"
       id="mask-powermask-path-effect55">
      <rect
         style="opacity:1;fill:url(#linearGradient55);fill-opacity:1;stroke:#000000;stroke-width:0.303694"
         id="rect55"
         width="34.357136"
         height="43.485054"
         x="-35.699394"
         y="74.102692"
         rx="1.99775" />
    </mask>
    <linearGradient
       inkscape:collect="always"
       xlink:href="#linearGradient53"
       id="linearGradient55"
       gradientUnits="userSpaceOnUse"
       gradientTransform="matrix(0.99887511,0,0,1.3148236,1.3005972,-32.000838)"
       x1="-19.84375"
       y1="114.56485"
       x2="-19.843748"
       y2="79.903915" />
    <clipPath
       clipPathUnits="userSpaceOnUse"
       id="clipath_lpe_path-effect57">
      <rect
         style="display:none;fill:none;stroke:#000000;stroke-width:0.264999"
         id="rect57"
         width="38.364578"
         height="13.229168"
         x="-41.01041"
         y="104.51042"
         d="m -41.01041,104.51042 h 38.3645779 v 13.22917 H -41.01041 Z" />
    </clipPath>
    <clipPath
       clipPathUnits="userSpaceOnUse"
       id="clipPath57">
      <rect
         style="display:block;opacity:1;fill:none;fill-opacity:1;stroke:#000000;stroke-width:0.0745677;stroke-opacity:1"
         id="rect58"
         width="10.265318"
         height="2.6458359"
         x="-24.425148"
         y="82.020836"
         rx="1.1085159" />
    </clipPath>
    <linearGradient
       inkscape:collect="always"
       xlink:href="#linearGradient1-7"
       id="linearGradient2-2"
       x1="90.64563"
       y1="0.56384087"
       x2="65.227524"
       y2="127.93616"
       gradientUnits="userSpaceOnUse" />
    <linearGradient
       id="linearGradient1-7"
       inkscape:collect="always">
      <stop
         style="stop-color:#8f4637;stop-opacity:1;"
         offset="0"
         id="stop1-9" />
      <stop
         style="stop-color:#632910;stop-opacity:1;"
         offset="1"
         id="stop2-3" />
    </linearGradient>
    <linearGradient
       inkscape:collect="always"
       xlink:href="#linearGradient1"
       id="linearGradient2"
       x1="11.436715"
       y1="42.195259"
       x2="42.140053"
       y2="111.58096"
       gradientUnits="userSpaceOnUse" />
    <linearGradient
       inkscape:collect="always"
       xlink:href="#linearGradient19"
       id="linearGradient20"
       x1="-81.332535"
       y1="48.972332"
       x2="-83.800354"
       y2="48.972332"
       gradientUnits="userSpaceOnUse"
       gradientTransform="matrix(0.98902675,0,0,0.98902675,85.940357,-3.4621689)" />
    <linearGradient
       inkscape:collect="always"
       xlink:href="#linearGradient21"
       id="linearGradient22"
       x1="-49.000004"
       y1="18.122448"
       x2="-49.000004"
       y2="15.995587"
       gradientUnits="userSpaceOnUse"
       gradientTransform="matrix(0.98902675,0,0,0.98902675,85.940357,-3.4621689)" />
    <linearGradient
       inkscape:collect="always"
       xlink:href="#linearGradient25"
       id="linearGradient26"
       x1="-50.999989"
       y1="80.999855"
       x2="-50.999989"
       y2="82.249763"
       gradientUnits="userSpaceOnUse"
       gradientTransform="matrix(0.98902675,0,0,0.98902675,85.940357,-3.4621689)" />
    <linearGradient
       inkscape:collect="always"
       xlink:href="#linearGradient21"
       id="linearGradient22-8"
       x1="-51.052181"
       y1="20.905462"
       x2="-51.052181"
       y2="15.904456"
       gradientUnits="userSpaceOnUse" />
    <linearGradient
       inkscape:collect="always"
       xlink:href="#linearGradient21"
       id="linearGradient27"
       gradientUnits="userSpaceOnUse"
       x1="-20.667143"
       y1="48.946884"
       x2="-18.388542"
       y2="48.946884"
       gradientTransform="matrix(0.98902675,0,0,0.98902675,85.940357,-3.4621689)" />
  </defs>
  <g
     inkscape:groupmode="layer"
     id="layer3"
     inkscape:label="Background"
     style="display:inline;fill:#7a3d10;fill-opacity:1;stroke-width:0;stroke-dasharray:none"
     transform="matrix(1.0101931,0,0,1.0088534,-0.56958815,-0.56883277)">
    <rect
       style="font-variation-settings:normal;display:inline;opacity:1;vector-effect:none;fill:url(#linearGradient2);fill-opacity:1;stroke:none;stroke-width:0;stroke-linecap:butt;stroke-linejoin:miter;stroke-miterlimit:1;stroke-dasharray:none;stroke-dashoffset:0;stroke-opacity:1;-inkscape-stroke:none;stop-color:#000000;stop-opacity:1"
       id="rect9-0"
       width="70.402382"
       height="127.37232"
       x="0.56384051"
       y="0.56384075" />
    <path
       d="m 20.50646,9.47857 0.536756,-3.1618235 h 0.813519 l 0.633204,1.6857467 0.62901,-1.6857467 h 0.813519 L 24.469223,9.47857 H 23.65151 L 23.378939,7.6586344 22.632514,9.47857 H 22.305429 L 21.596744,7.6586344 21.324173,9.47857 Z m 5.068772,-1.5809118 q 0,0.188703 0.07129,0.3480522 0.07129,0.1593492 0.192896,0.2767644 0.121609,0.1174152 0.280958,0.1845096 0.163543,0.062901 0.343859,0.062901 0.180316,0 0.339665,-0.062901 0.163543,-0.067094 0.285151,-0.1845096 0.125802,-0.1174152 0.19709,-0.2767644 0.07129,-0.1593492 0.07129,-0.3480522 0,-0.188703 -0.07129,-0.3480522 -0.07129,-0.1593492 -0.19709,-0.2767644 -0.121608,-0.1174152 -0.285151,-0.1803162 -0.159349,-0.067094 -0.339665,-0.067094 -0.180316,0 -0.343859,0.067094 -0.159349,0.062901 -0.280958,0.1803162 -0.121608,0.1174152 -0.192896,0.2767644 -0.07129,0.1593492 -0.07129,0.3480522 z m -0.859647,0 q 0,-0.3522456 0.129995,-0.6541704 0.129996,-0.3061182 0.360633,-0.5325618 0.230637,-0.2264435 0.549335,-0.3522455 0.322892,-0.1299954 0.708685,-0.1299954 0.381599,0 0.704491,0.1299954 0.322892,0.125802 0.553529,0.3522455 0.23483,0.2264436 0.364826,0.5325618 0.129995,0.3019248 0.129995,0.6541704 0,0.3522456 -0.129995,0.6583638 -0.129996,0.3019248 -0.364826,0.5283684 -0.230637,0.2264436 -0.553529,0.356439 -0.322892,0.125802 -0.704491,0.125802 -0.385793,0 -0.708685,-0.125802 Q 25.43685,9.310834 25.206213,9.0843904 24.975576,8.8579468 24.84558,8.556022 24.715585,8.2499038 24.715585,7.8976582 Z m 4.71233,-0.167736 h 0.155155 q 0.243218,0 0.373213,-0.1006416 0.129995,-0.1006416 0.129995,-0.2893446 0,-0.188703 -0.129995,-0.2893446 Q 29.826288,6.9499498 29.58307,6.9499498 H 29.427915 Z M 31.23527,9.47857 H 30.21208 L 29.427915,8.262484 V 9.47857 H 28.606008 V 6.3167465 h 1.278987 q 0.264184,0 0.461274,0.079675 0.19709,0.075481 0.322892,0.2096699 0.129995,0.1341888 0.192896,0.3103116 0.06709,0.1761228 0.06709,0.377406 0,0.3606324 -0.176123,0.587076 -0.171929,0.2222502 -0.511595,0.3019248 z m 1.03472,-1.7109072 h 0.272571 q 0.452887,0 0.452887,-0.3941796 0,-0.3941796 -0.452887,-0.3941796 H 32.26999 Z m 0,1.7109072 H 31.448084 V 6.3167465 h 1.30834 q 0.532562,0 0.81352,0.2767643 0.285151,0.2767644 0.285151,0.7799724 0,0.503208 -0.285151,0.7799724 Q 33.288986,8.43022 32.756424,8.43022 H 32.26999 Z m 2.712079,-1.9415442 h 1.186732 V 6.3167465 h 0.821907 V 9.47857 H 36.168801 V 8.1744226 H 34.982069 V 9.47857 H 34.160163 V 6.3167465 h 0.821906 z M 39.258288,7.1260726 Q 39.124099,7.0170442 38.98991,6.9667234 q -0.134189,-0.054514 -0.259991,-0.054514 -0.159349,0 -0.25999,0.075481 -0.100642,0.075481 -0.100642,0.1970898 0,0.083868 0.05032,0.1383822 0.05032,0.054514 0.129995,0.096448 0.08387,0.037741 0.18451,0.067094 0.104835,0.029354 0.205476,0.062901 0.402567,0.1341888 0.587076,0.3606324 0.188703,0.2222502 0.188703,0.5828826 0,0.2432172 -0.08387,0.440307 -0.07967,0.1970898 -0.239023,0.3396654 -0.155156,0.1383822 -0.385793,0.2138634 -0.226444,0.079675 -0.515788,0.079675 -0.599657,0 -1.111251,-0.356439 L 37.73189,8.5476352 q 0.18451,0.1635426 0.364826,0.2432172 0.180316,0.079675 0.356439,0.079675 0.201283,0 0.297731,-0.092255 0.100642,-0.092255 0.100642,-0.20967 0,-0.071288 -0.02516,-0.1216086 Q 38.801207,8.3924794 38.7425,8.3505454 38.683792,8.304418 38.587344,8.2666774 38.495089,8.2289368 38.3609,8.1828094 38.201551,8.1324886 38.046395,8.073781 37.895433,8.01088 37.773824,7.9102384 37.656409,7.8095968 37.580928,7.6586344 37.50964,7.5034786 37.50964,7.2686482 q 0,-0.2348304 0.07548,-0.4235334 0.07968,-0.1928964 0.218057,-0.3270851 0.142576,-0.1383822 0.343859,-0.2138634 0.205476,-0.075481 0.45708,-0.075481 0.234831,0 0.490628,0.067094 0.255798,0.062901 0.490628,0.188703 z m 3.118841,0.2474106 Q 42.091978,7.025431 41.672638,7.025431 q -0.18451,0 -0.343859,0.067094 -0.155156,0.067094 -0.268378,0.1845096 -0.113222,0.1132218 -0.180316,0.272571 -0.0629,0.1593492 -0.0629,0.3438588 0,0.188703 0.0629,0.3480522 0.06709,0.1593492 0.180316,0.2767644 0.117415,0.1174152 0.272571,0.1845096 0.155156,0.067094 0.335472,0.067094 0.39418,0 0.708685,-0.335472 v 0.9728688 l -0.08387,0.029354 q -0.188703,0.067094 -0.352246,0.096448 -0.163542,0.033547 -0.322892,0.033547 -0.327085,0 -0.62901,-0.1216086 Q 40.691382,9.3192208 40.460745,9.0969706 40.234301,8.870527 40.095919,8.5644088 39.957537,8.2540972 39.957537,7.8892714 q 0,-0.3648258 0.134189,-0.6667506 0.138382,-0.3061182 0.364826,-0.524175 0.230637,-0.2222501 0.532561,-0.3438587 0.301925,-0.125802 0.633204,-0.125802 0.188703,0 0.369019,0.041934 0.18451,0.037741 0.385793,0.1216086 z m 1.152135,0.524175 q 0,0.188703 0.07129,0.3480522 0.07129,0.1593492 0.192896,0.2767644 0.121609,0.1174152 0.280958,0.1845096 0.163543,0.062901 0.343859,0.062901 0.180316,0 0.339665,-0.062901 0.163543,-0.067094 0.285151,-0.1845096 0.125802,-0.1174152 0.19709,-0.2767644 0.07129,-0.1593492 0.07129,-0.3480522 0,-0.188703 -0.07129,-0.3480522 Q 45.168883,7.3902568 45.043081,7.2728416 44.921473,7.1554264 44.75793,7.0925254 44.598581,7.025431 44.418265,7.025431 q -0.180316,0 -0.343859,0.067094 -0.159349,0.062901 -0.280958,0.1803162 -0.121608,0.1174152 -0.192896,0.2767644 -0.07129,0.1593492 -0.07129,0.3480522 z m -0.859647,0 q 0,-0.3522456 0.129995,-0.6541704 0.129996,-0.3061182 0.360633,-0.5325618 0.230637,-0.2264435 0.549335,-0.3522455 0.322892,-0.1299954 0.708685,-0.1299954 0.381599,0 0.704491,0.1299954 0.322892,0.125802 0.553529,0.3522455 0.23483,0.2264436 0.364826,0.5325618 0.129995,0.3019248 0.129995,0.6541704 0,0.3522456 -0.129995,0.6583638 -0.129996,0.3019248 -0.364826,0.5283684 -0.230637,0.2264436 -0.553529,0.356439 -0.322892,0.125802 -0.704491,0.125802 -0.385793,0 -0.708685,-0.125802 Q 43.390882,9.310834 43.160245,9.0843904 42.929608,8.8579468 42.799612,8.556022 42.669617,8.2499038 42.669617,7.8976582 Z m 4.712329,-0.1299954 h 0.272571 q 0.452887,0 0.452887,-0.3941796 0,-0.3941796 -0.452887,-0.3941796 h -0.272571 z m 0,1.7109072 H 46.560039 V 6.3167465 h 1.308341 q 0.532562,0 0.81352,0.2767643 0.285151,0.2767644 0.285151,0.7799724 0,0.503208 -0.285151,0.7799724 Q 48.400942,8.43022 47.86838,8.43022 h -0.486434 z m 3.689142,-2.4657192 h -0.977062 v 0.5283684 h 0.922548 v 0.6961044 h -0.922548 v 0.545142 h 0.977062 V 9.47857 H 49.272119 V 6.3167465 h 1.798969 z"
       id="text27-4"
       style="font-weight:bold;font-size:4.1934px;line-height:1.25;font-family:Futura;-inkscape-font-specification:'Futura, Bold';font-variant-ligatures:none;text-align:center;letter-spacing:-0.131044px;text-anchor:middle;opacity:0.99;fill:#2b2a28;stroke:#d9d4c6;stroke-width:0.148585"
       transform="scale(0.99933667,1.0006638)"
       aria-label="MORPHSCOPE" />
    <path
       d="m 28.111712,121.58362 h -0.494821 v 0.26419 h 0.45079 v 0.34805 h -0.45079 v 0.62062 h -0.410953 v -1.58091 h 0.905774 z m 0.525223,-0.34805 v 1.58091 h -0.410953 v -1.58091 z m 0.611188,0 v 1.23286 h 0.492724 v 0.34805 h -0.903678 v -1.58091 z m 1.089232,0.34805 v 1.23286 h -0.410953 v -1.23286 h -0.337569 v -0.34805 h 1.086091 v 0.34805 z m 1.288423,0 h -0.488531 v 0.26419 h 0.461274 v 0.34805 h -0.461274 v 0.27257 h 0.488531 v 0.34805 h -0.899484 v -1.58091 h 0.899484 z m 0.575543,0.35854 h 0.07758 q 0.121609,0 0.186606,-0.0503 0.065,-0.0503 0.065,-0.14467 0,-0.0944 -0.065,-0.14468 -0.065,-0.0503 -0.186606,-0.0503 h -0.07758 z m 0.903678,0.87432 h -0.511595 l -0.392083,-0.60804 v 0.60804 h -0.410953 v -1.58091 h 0.639493 q 0.132093,0 0.230637,0.0398 0.09855,0.0377 0.161446,0.10483 0.065,0.0671 0.09645,0.15516 0.03355,0.0881 0.03355,0.1887 0,0.18032 -0.08806,0.29354 -0.08596,0.11112 -0.255797,0.15096 z m 1.033672,-0.87432 h 0.07758 q 0.121608,0 0.186606,-0.0503 0.065,-0.0503 0.065,-0.14467 0,-0.0944 -0.065,-0.14468 -0.065,-0.0503 -0.186606,-0.0503 h -0.07758 z m 0.903678,0.87432 h -0.511595 l -0.392083,-0.60804 v 0.60804 h -0.410953 v -1.58091 h 0.639493 q 0.132092,0 0.230637,0.0398 0.09855,0.0377 0.161446,0.10483 0.065,0.0671 0.09645,0.15516 0.03355,0.0881 0.03355,0.1887 0,0.18032 -0.08806,0.29354 -0.08597,0.11112 -0.255797,0.15096 z m 0.940368,-1.23286 h -0.488531 v 0.26419 h 0.461274 v 0.34805 h -0.461274 v 0.27257 h 0.488531 v 0.34805 h -0.899484 v -1.58091 h 0.899484 z m 1.032625,0.0566 q -0.06709,-0.0545 -0.134189,-0.0797 -0.06709,-0.0273 -0.129996,-0.0273 -0.07967,0 -0.129995,0.0377 -0.05032,0.0377 -0.05032,0.0986 0,0.0419 0.02516,0.0692 0.02516,0.0273 0.065,0.0482 0.04193,0.0189 0.09226,0.0335 0.05242,0.0147 0.102738,0.0315 0.201283,0.0671 0.293538,0.18032 0.09435,0.11112 0.09435,0.29144 0,0.12161 -0.04193,0.22015 -0.03984,0.0986 -0.119512,0.16983 -0.07758,0.0692 -0.192896,0.10694 -0.113222,0.0398 -0.257895,0.0398 -0.299828,0 -0.555625,-0.17822 l 0.176123,-0.33127 q 0.09226,0.0818 0.182413,0.1216 0.09016,0.0398 0.178219,0.0398 0.100642,0 0.148866,-0.0461 0.05032,-0.0461 0.05032,-0.10483 0,-0.0357 -0.01258,-0.0608 -0.01258,-0.0273 -0.04193,-0.0482 -0.02935,-0.0231 -0.07758,-0.0419 -0.04613,-0.0189 -0.113222,-0.0419 -0.07968,-0.0252 -0.157253,-0.0545 -0.07548,-0.0315 -0.136285,-0.0818 -0.05871,-0.0503 -0.09645,-0.12581 -0.03564,-0.0776 -0.03564,-0.19499 0,-0.11741 0.03774,-0.21177 0.03984,-0.0964 0.109029,-0.16354 0.07129,-0.0692 0.171929,-0.10693 0.102738,-0.0377 0.22854,-0.0377 0.117416,0 0.245314,0.0335 0.127899,0.0315 0.245314,0.0944 z m 0.766343,0.3208 h 0.136285 q 0.226444,0 0.226444,-0.19709 0,-0.19709 -0.226444,-0.19709 h -0.136285 z m 0,0.85545 h -0.410953 v -1.58091 h 0.65417 q 0.266281,0 0.40676,0.13838 0.142575,0.13839 0.142575,0.38999 0,0.2516 -0.142575,0.38999 -0.140479,0.13838 -0.40676,0.13838 h -0.243217 z m 1.2381,-0.79045 q 0,0.0943 0.03564,0.17402 0.03564,0.0797 0.09645,0.13838 0.06081,0.0587 0.140479,0.0923 0.08177,0.0315 0.17193,0.0315 0.09016,0 0.169832,-0.0315 0.08177,-0.0336 0.142576,-0.0923 0.0629,-0.0587 0.09855,-0.13838 0.03564,-0.0797 0.03564,-0.17402 0,-0.0944 -0.03564,-0.17403 -0.03564,-0.0797 -0.09855,-0.13838 -0.0608,-0.0587 -0.142576,-0.0902 -0.07967,-0.0335 -0.169832,-0.0335 -0.09016,0 -0.17193,0.0335 -0.07967,0.0315 -0.140479,0.0902 -0.0608,0.0587 -0.09645,0.13838 -0.03564,0.0797 -0.03564,0.17403 z m -0.429823,0 q 0,-0.17613 0.065,-0.32709 0.065,-0.15306 0.180317,-0.26628 0.115318,-0.11322 0.274667,-0.17612 0.161446,-0.065 0.354343,-0.065 0.190799,0 0.352245,0.065 0.161446,0.0629 0.276765,0.17612 0.117415,0.11322 0.182412,0.26628 0.065,0.15096 0.065,0.32709 0,0.17612 -0.065,0.32918 -0.065,0.15096 -0.182412,0.26418 -0.115319,0.11322 -0.276765,0.17822 -0.161446,0.0629 -0.352245,0.0629 -0.192897,0 -0.354343,-0.0629 -0.159349,-0.065 -0.274667,-0.17822 -0.115319,-0.11322 -0.180317,-0.26418 -0.065,-0.15306 -0.065,-0.32918 z m 1.879689,0.79045 v -1.58091 h 0.410953 l 0.759005,0.96658 v -0.96658 h 0.408857 v 1.58091 h -0.408857 l -0.759005,-0.96658 v 0.96658 z m 2.647082,-1.17625 q -0.06709,-0.0545 -0.134189,-0.0797 -0.06709,-0.0273 -0.129995,-0.0273 -0.07967,0 -0.129995,0.0377 -0.05032,0.0377 -0.05032,0.0986 0,0.0419 0.02516,0.0692 0.02516,0.0273 0.065,0.0482 0.04193,0.0189 0.09226,0.0335 0.05242,0.0147 0.102738,0.0315 0.201283,0.0671 0.293538,0.18032 0.09435,0.11112 0.09435,0.29144 0,0.12161 -0.04193,0.22015 -0.03984,0.0986 -0.119512,0.16983 -0.07758,0.0692 -0.192897,0.10694 -0.113222,0.0398 -0.257894,0.0398 -0.299828,0 -0.555625,-0.17822 l 0.176123,-0.33127 q 0.09225,0.0818 0.182412,0.1216 0.09016,0.0398 0.17822,0.0398 0.100641,0 0.148866,-0.0461 0.05032,-0.0461 0.05032,-0.10483 0,-0.0357 -0.01258,-0.0608 -0.01258,-0.0273 -0.04193,-0.0482 -0.02935,-0.0231 -0.07758,-0.0419 -0.04613,-0.0189 -0.113221,-0.0419 -0.07967,-0.0252 -0.157253,-0.0545 -0.07548,-0.0315 -0.136285,-0.0818 -0.05871,-0.0503 -0.09645,-0.12581 -0.03564,-0.0776 -0.03564,-0.19499 0,-0.11741 0.03774,-0.21177 0.03984,-0.0964 0.109028,-0.16354 0.07129,-0.0692 0.17193,-0.10693 0.102738,-0.0377 0.22854,-0.0377 0.117415,0 0.245314,0.0335 0.127899,0.0315 0.245314,0.0944 z m 1.254875,-0.0566 h -0.488531 v 0.26419 h 0.461274 v 0.34805 h -0.461274 v 0.27257 h 0.488531 v 0.34805 h -0.899485 v -1.58091 h 0.899485 z"
       id="text19-5"
       style="font-weight:bold;font-size:2.0967px;line-height:1.25;font-family:Futura;-inkscape-font-specification:'Futura, Bold';font-variant-ligatures:none;text-align:center;letter-spacing:-0.131044px;baseline-shift:baseline;text-anchor:middle;fill:#514c45;stroke:#eee9dc;stroke-width:0.148585"
       transform="scale(0.99933666,1.0006638)"
       aria-label="FILTER RESPONSE" />
    <path
       d="m 45.613242,91.085126 0.2682,-1.581961 h 0.40649 l 0.316391,0.843433 0.314297,-0.843433 h 0.40649 l 0.2682,1.581961 h -0.408586 l -0.136195,-0.910572 -0.372965,0.910572 H 46.51213 l -0.354108,-0.910572 -0.136194,0.910572 z m 2.51961,-1.581961 v 1.581961 h -0.410681 v -1.581961 z m 0.610782,1.233678 h 0.09429 q 0.106861,0 0.190673,-0.03357 0.08381,-0.03357 0.140386,-0.09232 0.05867,-0.05875 0.088,-0.138474 0.03143,-0.08182 0.03143,-0.178339 0,-0.09441 -0.03143,-0.176239 -0.03143,-0.08182 -0.0901,-0.140573 -0.05657,-0.05875 -0.140386,-0.09231 -0.08381,-0.03357 -0.188577,-0.03357 h -0.09429 z m -0.410681,-1.233678 h 0.607639 q 0.161339,0 0.301725,0.06504 0.142482,0.06504 0.247247,0.174141 0.106861,0.107003 0.167625,0.251771 0.06076,0.142671 0.06076,0.300027 0,0.155259 -0.06076,0.300028 -0.05867,0.14267 -0.165529,0.251771 -0.104766,0.109101 -0.247247,0.174141 -0.140386,0.06504 -0.303821,0.06504 h -0.607639 z"
       id="text9-3"
       style="font-weight:bold;font-size:2.0967px;line-height:1.25;font-family:Futura;-inkscape-font-specification:'Futura, Bold';font-variant-ligatures:none;letter-spacing:-0.131044px;baseline-shift:baseline;fill:#514c45;stroke:#d9d4c6;stroke-width:0.148585"
       aria-label="MID" />
  </g>
  <g
     inkscape:groupmode="layer"
     id="layer2"
     inkscape:label="Text"
     style="display:inline">
    <g
       id="text3"
       transform="translate(28.433594,-17.999703)">
      <path
         style="-inkscape-font-specification:'Futura, Bold';fill:#514c45"
         d="m 17.508918,111.70416 0.275167,1.03082 0.338667,-1.03082 h 0.330201 l 0.338667,1.03082 0.275167,-1.03082 h 0.433917 l -0.47625,1.59597 H 18.60112 l -0.313267,-0.92498 -0.313268,0.92498 h -0.423334 l -0.47625,-1.59597 z m 2.441578,0 v 1.59597 h -0.414867 v -1.59597 z m 0.61701,1.24461 h 0.09525 q 0.10795,0 0.192617,-0.0339 0.08467,-0.0339 0.141817,-0.0931 0.05927,-0.0593 0.0889,-0.1397 0.03175,-0.0825 0.03175,-0.17992 0,-0.0953 -0.03175,-0.1778 -0.03175,-0.0825 -0.09102,-0.14182 -0.05715,-0.0593 -0.141817,-0.0931 -0.08467,-0.0339 -0.1905,-0.0339 h -0.09525 z m -0.414867,-1.24461 h 0.613834 q 0.162983,0 0.3048,0.0656 0.143934,0.0656 0.249767,0.17568 0.107951,0.10795 0.169334,0.254 0.06138,0.14394 0.06138,0.30269 0,0.15663 -0.06138,0.30268 -0.05927,0.14394 -0.167217,0.254 -0.105833,0.11007 -0.249767,0.17569 -0.141817,0.0656 -0.306917,0.0656 h -0.613834 z m 2.43946,0.35137 h -0.493184 v 0.2667 h 0.465667 v 0.35137 h -0.465667 v 0.27517 h 0.493184 v 0.35136 h -0.908052 v -1.59597 h 0.908052 z"
         id="path25" />
      <path
         style="-inkscape-font-specification:'Futura, Bold';fill:#d9d4c6"
         d="m 16.974609,111.62891 0.521485,1.74609 h 0.533203 l 0.259765,-0.76562 0.257813,0.76562 h 0.533203 l 0.380859,-1.27539 v 1.27539 h 0.564454 v -1.74609 h -0.423829 -0.140625 -0.451171 l -0.22461,0.84179 -0.277344,-0.84179 h -0.439453 l -0.277343,0.84179 -0.22461,-0.84179 z m 3.103516,0 v 1.74609 h 0.6875 c 0.12,0 0.235234,-0.0239 0.339844,-0.0723 0.104045,-0.0474 0.194316,-0.11114 0.271484,-0.1914 0.0786,-0.0801 0.140539,-0.17279 0.183594,-0.27735 h -0.002 c 0.03308,-0.0787 0.04214,-0.16265 0.05078,-0.24609 v 0.78711 h 1.058594 v -0.50195 H 22.17378 v -0.125 h 0.464844 v -0.5 H 22.17378 v -0.11719 h 0.494141 v -0.50195 h -1.058594 v 0.78711 c -0.0086,-0.084 -0.01756,-0.16818 -0.05078,-0.2461 -0.04445,-0.10576 -0.104694,-0.19844 -0.183594,-0.27734 -0.0768,-0.0799 -0.168053,-0.14405 -0.271484,-0.19141 h -0.002 c -0.103997,-0.0478 -0.217875,-0.0723 -0.335937,-0.0723 z m -2.902344,0.15039 h 0.275391 l 0.326172,1.21875 0.40039,-1.21875 h 0.220703 l 0.400391,1.21875 0.326172,-1.21875 h 0.275391 l -0.431641,1.44531 h -0.314453 l -0.367188,-1.08398 -0.367187,1.08398 h -0.3125 z m 2.435547,0 H 19.875 v 1.44531 h -0.263672 z m 0.617188,0 h 0.537109 c 0.09859,0 0.188829,0.0194 0.273437,0.0586 h 0.002 c 0.08786,0.04 0.162621,0.0936 0.226562,0.16016 0.06503,0.065 0.116902,0.14149 0.154297,0.23047 0.03702,0.0868 0.05469,0.17727 0.05469,0.27343 0,0.0946 -0.01748,0.1849 -0.05469,0.27344 -0.03597,0.0874 -0.08702,0.16387 -0.152344,0.23047 -0.06394,0.0665 -0.138695,0.1201 -0.226562,0.16016 h -0.002 c -0.08448,0.0391 -0.175258,0.0586 -0.275391,0.0586 h -0.537109 z m 1.53125,0 h 0.757812 v 0.20117 h -0.494141 v 0.41601 h 0.466797 v 0.20118 h -0.466797 v 0.42578 h 0.494141 v 0.20117 h -0.757812 z m -1.267579,0.20117 v 1.04297 h 0.169922 c 0.07982,0 0.154048,-0.0124 0.220703,-0.0391 0.06503,-0.026 0.121985,-0.0637 0.167969,-0.11133 0.04611,-0.0465 0.08236,-0.10202 0.105469,-0.16407 v -0.002 c 0.02426,-0.0637 0.03711,-0.13265 0.03711,-0.20508 0,-0.0719 -0.01247,-0.14104 -0.03711,-0.20507 -0.02442,-0.0635 -0.06092,-0.11914 -0.107422,-0.16602 -0.046,-0.0477 -0.102894,-0.0854 -0.167969,-0.11133 -0.06646,-0.0266 -0.140188,-0.0391 -0.21875,-0.0391 z m 0.150391,0.15039 h 0.01953 c 0.06255,0 0.117626,0.009 0.164063,0.0273 0.04781,0.0191 0.08504,0.0448 0.115234,0.0762 v 0.002 c 0.03196,0.032 0.05651,0.0692 0.07422,0.11523 0.01769,0.046 0.02734,0.0952 0.02734,0.15039 0,0.0568 -0.0097,0.10658 -0.02734,0.15235 v 0.002 c -0.01621,0.044 -0.04032,0.0813 -0.07227,0.11328 -0.03021,0.0313 -0.06737,0.057 -0.115234,0.0762 -0.04623,0.0185 -0.1019,0.0274 -0.166016,0.0274 h -0.01953 z"
         id="path26" />
    </g>
    <g
       id="text10"
       transform="translate(28.433594,-17.999703)">
      <path
         style="-inkscape-font-specification:'Futura, Bold';fill:#514c45"
         d="m 17.075,105.34447 v -1.59597 h 0.414868 l 0.766234,0.97578 v -0.97578 h 0.412751 v 1.59597 h -0.412751 l -0.766234,-0.97579 v 0.97579 z m 2.668063,-0.59267 -0.186267,-0.53128 -0.186267,0.53128 z m 0.110067,0.31538 h -0.592668 l -0.09525,0.27729 h -0.442384 l 0.607484,-1.59597 h 0.452968 l 0.607484,1.59597 H 19.94838 Z m 1.002243,-0.60536 h 0.07832 q 0.122767,0 0.188383,-0.0508 0.06562,-0.0508 0.06562,-0.14605 0,-0.0953 -0.06562,-0.14605 -0.06562,-0.0508 -0.188383,-0.0508 h -0.07832 z m 0.912285,0.88265 H 21.25119 l -0.395817,-0.61384 v 0.61384 h -0.414867 v -1.59597 h 0.645584 q 0.13335,0 0.232834,0.0402 0.09948,0.0381 0.162983,0.10584 0.06562,0.0677 0.09737,0.15663 0.03387,0.0889 0.03387,0.1905 0,0.18204 -0.0889,0.29634 -0.08678,0.11218 -0.258234,0.1524 z m 0.456141,-0.88265 h 0.07832 q 0.122767,0 0.188384,-0.0508 0.06562,-0.0508 0.06562,-0.14605 0,-0.0953 -0.06562,-0.14605 -0.06562,-0.0508 -0.188384,-0.0508 h -0.07832 z m 0.912285,0.88265 h -0.516467 l -0.395818,-0.61384 v 0.61384 h -0.414867 v -1.59597 h 0.645584 q 0.13335,0 0.232834,0.0402 0.09948,0.0381 0.162984,0.10584 0.06562,0.0677 0.09737,0.15663 0.03387,0.0889 0.03387,0.1905 0,0.18204 -0.0889,0.29634 -0.08678,0.11218 -0.258234,0.1524 z m 0.373591,-0.79799 q 0,0.0952 0.03598,0.17569 0.03598,0.0804 0.09737,0.1397 0.06138,0.0593 0.141816,0.0931 0.08255,0.0318 0.173567,0.0318 0.09102,0 0.171451,-0.0318 0.08255,-0.0339 0.143933,-0.0931 0.0635,-0.0593 0.09948,-0.1397 0.03598,-0.0804 0.03598,-0.17569 0,-0.0953 -0.03598,-0.17568 -0.03598,-0.0804 -0.09948,-0.1397 -0.06138,-0.0593 -0.143933,-0.091 -0.08043,-0.0339 -0.171451,-0.0339 -0.09102,0 -0.173567,0.0339 -0.08043,0.0318 -0.141816,0.091 -0.06138,0.0593 -0.09737,0.1397 -0.03598,0.0804 -0.03598,0.17568 z m -0.433917,0 q 0,-0.1778 0.06562,-0.3302 0.06562,-0.15451 0.182033,-0.26881 0.116417,-0.11431 0.277284,-0.17781 0.162984,-0.0656 0.357717,-0.0656 0.192617,0 0.355601,0.0656 0.162983,0.0635 0.2794,0.17781 0.118534,0.1143 0.184151,0.26881 0.06562,0.1524 0.06562,0.3302 0,0.1778 -0.06562,0.33232 -0.06562,0.1524 -0.184151,0.2667 -0.116417,0.1143 -0.2794,0.17992 -0.162984,0.0635 -0.355601,0.0635 -0.194733,0 -0.357717,-0.0635 -0.160867,-0.0656 -0.277284,-0.17992 -0.116416,-0.1143 -0.182033,-0.2667 -0.06562,-0.15452 -0.06562,-0.33232 z m 2.138895,-0.79798 0.275167,1.03082 0.338667,-1.03082 h 0.330201 l 0.338667,1.03082 0.275167,-1.03082 h 0.433917 l -0.476251,1.59597 h -0.423334 l -0.313267,-0.92499 -0.313267,0.92499 h -0.423334 l -0.476251,-1.59597 z"
         id="path21" />
      <path
         style="-inkscape-font-specification:'Futura, Bold';fill:#d9d4c6"
         d="m 23.958984,103.62891 c -0.138243,0 -0.268464,0.0227 -0.386718,0.0703 -0.115794,0.0457 -0.215802,0.11187 -0.300782,0.19531 -0.08464,0.0831 -0.151835,0.1814 -0.199218,0.29297 C 23.024329,104.29883 23,104.41912 23,104.54688 c 0,0.12775 0.02447,0.24878 0.07227,0.36132 0.04742,0.11015 0.114744,0.20808 0.199218,0.29102 0.08482,0.0833 0.185289,0.14821 0.300782,0.19531 h 0.002 c 0.11807,0.046 0.246791,0.0703 0.384765,0.0703 0.136653,0 0.264845,-0.0243 0.382813,-0.0703 0.11638,-0.0469 0.217989,-0.11242 0.302734,-0.19531 0.08603,-0.083 0.153632,-0.18061 0.201172,-0.29102 0.04779,-0.11254 0.07227,-0.23357 0.07227,-0.36132 0,-0.082 -0.02719,-0.15491 -0.04687,-0.23047 l 0.330078,1.10351 h 0.533203 l 0.259766,-0.76562 0.259765,0.76562 h 0.53125 l 0.521485,-1.74609 h -0.591797 l -0.22461,0.84375 -0.277343,-0.84375 h -0.439454 l -0.277343,0.8418 -0.22461,-0.8418 h -0.591797 l 0.144532,0.48047 c -0.04575,-0.096 -0.101988,-0.18628 -0.177735,-0.25977 -0.08514,-0.0836 -0.187476,-0.14964 -0.304687,-0.19531 -0.11815,-0.0476 -0.245887,-0.0703 -0.382813,-0.0703 z M 17,103.67383 v 1.74609 h 0.564453 v -0.83594 l 0.654297,0.83594 h 0.394531 0.13086 0.474609 l 0.0957,-0.27734 h 0.484375 l 0.0957,0.27734 H 20.365234 20.5 20.929687 v -0.43554 l 0.28125,0.43554 h 0.523438 0.185547 0.378906 v -0.43359 l 0.279297,0.43359 h 0.710937 l -0.546875,-0.71094 c 0.07816,-0.0334 0.160221,-0.062 0.208985,-0.125 0.07111,-0.0914 0.105469,-0.20822 0.105469,-0.34179 0,-0.0761 -0.0131,-0.14865 -0.03906,-0.2168 -0.02445,-0.0685 -0.0629,-0.12932 -0.113281,-0.18164 -0.0509,-0.0543 -0.114247,-0.0962 -0.189453,-0.125 -0.07711,-0.0312 -0.163329,-0.0449 -0.259766,-0.0449 h -0.720703 v 1.5039 L 21.375,104.70898 c 0.07766,-0.0333 0.160454,-0.0623 0.208984,-0.125 0.07111,-0.0914 0.103516,-0.20822 0.103516,-0.34179 0,-0.0761 -0.0131,-0.14865 -0.03906,-0.2168 h 0.002 c -0.02434,-0.0682 -0.06326,-0.12948 -0.113282,-0.18164 -0.05054,-0.0539 -0.114933,-0.0962 -0.189453,-0.125 h -0.002 c -0.0767,-0.0307 -0.164028,-0.0449 -0.259766,-0.0449 h -0.720703 v 1.39258 l -0.529297,-1.39258 h -0.55664 l -0.535156,1.40234 v -1.40234 h -0.5625 v 0.83398 l -0.65625,-0.83398 z m 6.958984,0.10547 c 0.119897,0 0.22701,0.0206 0.326172,0.0605 h 0.002 c 0.100099,0.039 0.183826,0.0933 0.253907,0.16211 0.07184,0.0693 0.127974,0.14997 0.167968,0.24414 0.03956,0.0919 0.05859,0.19148 0.05859,0.30079 0,0.1093 -0.01889,0.20924 -0.05859,0.30273 -0.03995,0.0928 -0.09596,0.17275 -0.167968,0.24219 -0.07025,0.069 -0.15546,0.12364 -0.25586,0.16406 -0.09888,0.0383 -0.206695,0.0586 -0.326172,0.0586 -0.120975,0 -0.231285,-0.0204 -0.330078,-0.0586 h -0.002 c -0.09829,-0.0403 -0.181929,-0.0953 -0.251953,-0.16406 -0.07075,-0.0695 -0.123996,-0.14913 -0.164063,-0.24219 -0.0397,-0.0935 -0.06055,-0.19343 -0.06055,-0.30273 0,-0.10931 0.02099,-0.20892 0.06055,-0.30079 0.04011,-0.0944 0.09348,-0.17484 0.164063,-0.24414 0.07024,-0.069 0.155211,-0.12315 0.253906,-0.16211 0.09906,-0.0399 0.208678,-0.0605 0.330078,-0.0605 z m -6.808593,0.0449 h 0.302734 l 0.878906,1.11719 v -1.11719 h 0.261719 v 1.44531 h -0.300781 l -0.878907,-1.11719 v 1.11719 h -0.263671 z m 2.232421,0 h 0.34961 l 0.548828,1.44531 h -0.279297 l -0.0957,-0.27734 h -0.699219 l -0.0957,0.27734 h -0.279297 z m 1.132813,0 h 0.570312 c 0.08136,0 0.149548,0.0108 0.205079,0.0332 v 0.002 h 0.002 c 0.05743,0.022 0.100996,0.0499 0.134765,0.0859 v 0.002 c 0.03653,0.0377 0.06239,0.0793 0.08008,0.1289 h 0.002 v 0.002 c 0.01919,0.0504 0.0293,0.10466 0.0293,0.16406 0,0.10915 -0.0268,0.18903 -0.07422,0.25 -0.04588,0.0593 -0.11485,0.10108 -0.216797,0.125 l -0.111328,0.0273 0.478515,0.625 h -0.322265 l -0.472657,-0.73242 h 0.113282 c 0.09219,0 0.172727,-0.0187 0.234375,-0.0664 0.06169,-0.0477 0.0957,-0.12435 0.0957,-0.20507 0,-0.0807 -0.03399,-0.15735 -0.0957,-0.20508 -0.06165,-0.0477 -0.142188,-0.0684 -0.234375,-0.0684 H 20.78125 v 0.48437 0.0605 0.73242 h -0.265625 z m 1.369141,0 h 0.570312 c 0.08136,0 0.149548,0.0108 0.205078,0.0332 v 0.002 c 0.05743,0.022 0.100996,0.0499 0.134766,0.0859 l 0.002,0.002 c 0.03653,0.0377 0.06239,0.0793 0.08008,0.1289 v 0.002 c 0.0192,0.0504 0.0293,0.10466 0.0293,0.16406 0,0.10915 -0.02484,0.18903 -0.07227,0.25 -0.04588,0.0593 -0.114849,0.10108 -0.216797,0.125 l -0.113281,0.0273 0.478516,0.625 H 22.660156 L 22.1875,104.53711 h 0.115234 c 0.09219,0 0.172728,-0.0187 0.234375,-0.0664 0.06169,-0.0477 0.09375,-0.12435 0.09375,-0.20507 0,-0.0807 -0.03203,-0.15735 -0.09375,-0.20508 -0.06165,-0.0477 -0.142187,-0.0684 -0.234375,-0.0684 h -0.154297 v 0.48437 0.0605 0.73242 h -0.263671 z m 2.998046,0 h 0.275391 l 0.324219,1.21875 0.40039,-1.21875 h 0.220704 l 0.40039,1.21875 0.326172,-1.21875 h 0.275391 l -0.431641,1.44531 h -0.3125 l -0.367187,-1.08398 -0.367188,1.08398 H 25.3125 Z m -5.326171,0.16992 -0.291016,0.83203 h 0.583984 z m 4.402343,0.0371 c -0.06999,0 -0.139133,0.0128 -0.203125,0.0391 -0.06173,0.0246 -0.116584,0.0616 -0.164062,0.10742 -0.04783,0.0462 -0.08755,0.10028 -0.115235,0.16211 -0.0285,0.0637 -0.04102,0.13407 -0.04102,0.20704 0,0.0729 0.01253,0.14136 0.04102,0.20507 0.02767,0.0618 0.06739,0.11785 0.115235,0.16407 0.04757,0.046 0.102278,0.0815 0.164062,0.10742 v 0.002 h 0.002 c 0.06366,0.0245 0.13176,0.0371 0.201172,0.0371 0.06941,0 0.136603,-0.0123 0.199219,-0.0371 v -0.002 c 0.06266,-0.0257 0.118405,-0.0618 0.166016,-0.10742 0.04953,-0.0463 0.08929,-0.10173 0.117187,-0.16407 0.0285,-0.0637 0.04297,-0.13211 0.04297,-0.20507 0,-0.073 -0.01447,-0.14336 -0.04297,-0.20704 -0.02752,-0.0615 -0.06665,-0.11624 -0.115234,-0.16211 -0.04781,-0.0462 -0.104764,-0.0829 -0.167969,-0.10742 -0.06295,-0.0265 -0.129227,-0.0391 -0.199219,-0.0391 z m -3.029297,0.11133 h 0.0039 c 0.0715,0 0.116733,0.0152 0.142578,0.0352 0.02577,0.0199 0.03711,0.0416 0.03711,0.0879 0,0.0463 -0.0113,0.066 -0.03711,0.0859 -0.02584,0.02 -0.07108,0.0352 -0.142578,0.0352 h -0.0039 z m 1.369141,0 h 0.0039 c 0.0715,0 0.116734,0.0152 0.142578,0.0352 0.02578,0.0199 0.03516,0.0416 0.03516,0.0879 0,0.0463 -0.0094,0.066 -0.03516,0.0859 -0.02584,0.02 -0.07108,0.0352 -0.142578,0.0352 h -0.0039 z m 1.660156,0.0391 c 0.05137,0 0.09829,0.009 0.142578,0.0273 l 0.002,0.002 c 0.04623,0.0178 0.0855,0.0417 0.11914,0.0742 0.03514,0.0328 0.06196,0.0723 0.08203,0.11718 0.01947,0.0435 0.0293,0.0904 0.0293,0.14454 0,0.0541 -0.0098,0.10101 -0.0293,0.14453 -0.02008,0.0449 -0.04689,0.0824 -0.08203,0.11523 v 0.002 c -0.03398,0.0328 -0.07421,0.0569 -0.121094,0.0762 -0.04462,0.0176 -0.09063,0.0273 -0.142578,0.0273 -0.05194,0 -0.100079,-0.009 -0.146484,-0.0273 -0.04436,-0.019 -0.08357,-0.0437 -0.117188,-0.0762 -0.03401,-0.0328 -0.06173,-0.0718 -0.08203,-0.11718 -0.01949,-0.0436 -0.0293,-0.0905 -0.0293,-0.14453 0,-0.0541 0.0098,-0.10102 0.0293,-0.14454 0.02031,-0.0454 0.04802,-0.0843 0.08203,-0.11718 0.03397,-0.0328 0.0723,-0.0584 0.117188,-0.0762 0.04607,-0.0189 0.09512,-0.0273 0.146484,-0.0273 z m -4.402343,0.26563 0.08008,0.23046 h -0.160157 z"
         id="path22" />
    </g>
    <path
       d="m 41.003159,82.306356 h 0.104423 q 0.16369,0 0.251179,-0.06774 0.08749,-0.06773 0.08749,-0.194735 0,-0.127001 -0.08749,-0.194735 -0.08749,-0.06773 -0.251179,-0.06773 h -0.104423 z m 1.216386,1.176875 H 41.530918 L 41.003159,82.66478 v 0.818451 H 40.45 V 81.35526 h 0.860784 q 0.177801,0 0.310446,0.05363 0.132646,0.0508 0.217313,0.141112 0.08749,0.09031 0.129823,0.208846 0.04516,0.118534 0.04516,0.254002 0,0.242713 -0.118534,0.395114 -0.115712,0.149579 -0.344314,0.203202 z m 1.256251,-0.790228 -0.248357,-0.708383 -0.248358,0.708383 z m 0.146757,0.420514 h -0.790228 l -0.127001,0.369714 h -0.589849 l 0.809983,-2.127971 h 0.603961 l 0.809983,2.127971 h -0.589849 z m 0.82727,0.369714 V 81.35526 h 0.55316 l 1.021651,1.301054 V 81.35526 h 0.550338 v 2.127971 h -0.550338 l -1.021651,-1.301054 v 1.301054 z m 3.514044,-1.190986 h 1.097852 q 0,0.169334 -0.01411,0.307624 -0.01411,0.138289 -0.05644,0.256824 -0.05927,0.166512 -0.160868,0.296336 -0.101601,0.127001 -0.23989,0.21449 -0.135468,0.08467 -0.299158,0.129823 -0.16369,0.04516 -0.344314,0.04516 -0.248357,0 -0.45438,-0.08184 -0.203202,-0.08184 -0.349959,-0.228602 -0.146756,-0.149579 -0.228601,-0.355602 -0.08184,-0.208846 -0.08184,-0.460026 0,-0.248358 0.07902,-0.454381 0.08184,-0.208846 0.228602,-0.355603 0.149579,-0.146756 0.358425,-0.228601 0.208846,-0.08184 0.46567,-0.08184 0.333024,0 0.584204,0.143934 0.25118,0.143935 0.397936,0.445914 l -0.524937,0.217313 q -0.07338,-0.174978 -0.191913,-0.251179 -0.115711,-0.0762 -0.26529,-0.0762 -0.124179,0 -0.225779,0.04798 -0.101602,0.04516 -0.17498,0.132645 -0.07055,0.08467 -0.11289,0.206023 -0.03951,0.121357 -0.03951,0.270936 0,0.135467 0.03387,0.25118 0.03669,0.115711 0.107246,0.200379 0.07055,0.08467 0.174978,0.132645 0.104423,0.04516 0.242713,0.04516 0.08184,0 0.158046,-0.01693 0.0762,-0.01976 0.135468,-0.05927 0.06208,-0.04233 0.1016,-0.107245 0.03951,-0.06491 0.05363,-0.158045 h -0.454381 z m 2.526258,-0.468493 h -0.657582 v 0.355603 h 0.620893 v 0.468492 h -0.620893 v 0.366891 h 0.657582 v 0.468493 H 49.279383 V 81.35526 h 1.210742 z"
       id="text33-3"
       style="font-weight:bold;font-size:2.79562px;line-height:1.25;font-family:Futura;-inkscape-font-specification:'Futura, Bold';font-variant-ligatures:none;text-align:center;letter-spacing:-0.131044px;baseline-shift:baseline;text-anchor:middle;fill:#2b2a28;stroke:#eee9dc;stroke-width:0.15"
       aria-label="RANGE" />
    <path
       d="m 13.398,83.483238 0.361247,-2.127969 h 0.547515 l 0.426158,1.134541 0.423336,-1.134541 h 0.547515 l 0.361246,2.127969 H 15.51468 l -0.183445,-1.224852 -0.502359,1.224852 h -0.220135 l -0.476958,-1.224852 -0.183446,1.224852 z m 3.367286,-1.063984 q 0,0.127001 0.04798,0.234246 0.04798,0.107245 0.129823,0.186267 0.08185,0.07902 0.18909,0.124179 0.110067,0.04233 0.231424,0.04233 0.121356,0 0.228601,-0.04233 0.110067,-0.04516 0.191912,-0.124179 0.08467,-0.07902 0.132646,-0.186267 0.04798,-0.107245 0.04798,-0.234246 0,-0.127001 -0.04798,-0.234246 -0.04798,-0.107245 -0.132646,-0.186268 -0.08184,-0.07902 -0.191912,-0.121356 -0.107245,-0.04516 -0.228601,-0.04516 -0.121357,0 -0.231424,0.04516 -0.107245,0.04233 -0.18909,0.121356 -0.08184,0.07902 -0.129823,0.186268 -0.04798,0.107245 -0.04798,0.234246 z m -0.57856,0 q 0,-0.237068 0.08749,-0.44027 0.08749,-0.206023 0.242713,-0.358424 0.155223,-0.152401 0.369713,-0.237068 0.217313,-0.08749 0.476959,-0.08749 0.256823,0 0.474136,0.08749 0.217312,0.08467 0.372536,0.237068 0.158045,0.152401 0.245535,0.358424 0.08749,0.203202 0.08749,0.44027 0,0.237068 -0.08749,0.443091 -0.08749,0.203202 -0.245535,0.355603 -0.155224,0.152401 -0.372536,0.23989 -0.217313,0.08467 -0.474136,0.08467 -0.259646,0 -0.476959,-0.08467 -0.21449,-0.08749 -0.369713,-0.23989 -0.155224,-0.152401 -0.242713,-0.355603 -0.08749,-0.206023 -0.08749,-0.443091 z m 3.127394,0.595492 h 0.127 q 0.143935,0 0.256824,-0.04516 0.11289,-0.04516 0.18909,-0.124179 0.07902,-0.07902 0.118534,-0.186268 0.04233,-0.110067 0.04233,-0.23989 0,-0.127001 -0.04233,-0.237068 -0.04233,-0.110068 -0.121356,-0.189091 -0.0762,-0.07902 -0.18909,-0.124178 -0.11289,-0.04516 -0.254002,-0.04516 h -0.127 z m -0.553159,-1.659477 h 0.818449 q 0.217313,0 0.406403,0.08749 0.191912,0.08749 0.333024,0.234246 0.143934,0.143934 0.225779,0.338668 0.08184,0.191913 0.08184,0.403581 0,0.208845 -0.08184,0.40358 -0.07902,0.191912 -0.222957,0.338669 -0.141112,0.146756 -0.333024,0.234246 -0.18909,0.08749 -0.409225,0.08749 h -0.818449 z m 3.296727,0.468492 h -0.657582 v 0.355602 h 0.620893 v 0.468492 h -0.620893 v 0.366891 h 0.657582 v 0.468492 h -1.210741 v -2.127969 h 1.210741 z"
       id="text33"
       style="font-weight:bold;font-size:2.82224px;line-height:1.25;font-family:Futura;-inkscape-font-specification:'Futura, Bold';font-variant-ligatures:none;text-align:center;letter-spacing:-0.132292px;baseline-shift:baseline;text-anchor:middle;fill:#2b2a28;stroke:#eee9dc;stroke-width:0.15"
       aria-label="MODE" />
    <path
       d="m 17.328867,88.250162 h 0.137584 q 0.2286,0 0.2286,-0.198967 0,-0.198967 -0.2286,-0.198967 h -0.137584 z m 0,0.863601 H 16.914 v -1.595969 h 0.660401 q 0.268817,0 0.410634,0.1397 0.143934,0.139701 0.143934,0.393701 0,0.254 -0.143934,0.393701 -0.141817,0.1397 -0.410634,0.1397 h -0.245534 z m 1.249893,-0.797984 q 0,0.09525 0.03598,0.175683 0.03598,0.08043 0.09737,0.139701 0.06138,0.05927 0.141817,0.09313 0.08255,0.03175 0.173567,0.03175 0.09102,0 0.17145,-0.03175 0.08255,-0.03387 0.143934,-0.09313 0.0635,-0.05927 0.09948,-0.139701 0.03598,-0.08043 0.03598,-0.175683 0,-0.09525 -0.03598,-0.175684 -0.03598,-0.08043 -0.09948,-0.1397 -0.06138,-0.05927 -0.143934,-0.09102 -0.08043,-0.03387 -0.17145,-0.03387 -0.09102,0 -0.173567,0.03387 -0.08043,0.03175 -0.141817,0.09102 -0.06138,0.05927 -0.09737,0.1397 -0.03598,0.08043 -0.03598,0.175684 z m -0.433918,0 q 0,-0.1778 0.06562,-0.330201 0.06562,-0.154517 0.182034,-0.268817 0.116417,-0.1143 0.277284,-0.1778 0.162983,-0.06562 0.357717,-0.06562 0.192617,0 0.3556,0.06562 0.162984,0.0635 0.279401,0.1778 0.118533,0.1143 0.18415,0.268817 0.06562,0.152401 0.06562,0.330201 0,0.1778 -0.06562,0.332317 -0.06562,0.1524 -0.18415,0.2667 -0.116417,0.114301 -0.279401,0.179917 -0.162983,0.0635 -0.3556,0.0635 -0.194734,0 -0.357717,-0.0635 -0.160867,-0.06562 -0.277284,-0.179917 -0.116417,-0.1143 -0.182034,-0.2667 -0.06562,-0.154517 -0.06562,-0.332317 z m 2.312461,-0.797985 v 1.244602 h 0.497417 v 0.351367 h -0.912285 v -1.595969 z m 1.486959,0.351367 h -0.493184 v 0.266701 h 0.465667 v 0.351367 h -0.465667 v 0.275167 h 0.493184 v 0.351367 h -0.908051 v -1.595969 h 0.908051 z m 0.866776,-0.512234 h 0.302683 l -0.872068,2.12302 h -0.300567 z m 0.913342,1.405469 h 0.668867 v 0.351367 h -1.365252 l 0.755652,-1.244602 h -0.628651 v -0.351367 h 1.320802 z m 1.726145,-0.893235 h -0.493184 v 0.266701 h 0.465668 v 0.351367 h -0.465668 v 0.275167 h 0.493184 v 0.351367 h -0.908051 v -1.595969 h 0.908051 z m 0.581025,0.361951 h 0.07832 q 0.122767,0 0.188383,-0.0508 0.06562,-0.0508 0.06562,-0.14605 0,-0.09525 -0.06562,-0.146051 -0.06562,-0.0508 -0.188383,-0.0508 h -0.07832 z m 0.912285,0.882651 H 26.427367 L 26.03155,88.499929 v 0.613834 h -0.414867 v -1.595969 h 0.645584 q 0.13335,0 0.232834,0.04022 0.09948,0.0381 0.162983,0.105833 0.06562,0.06773 0.09737,0.156634 0.03387,0.0889 0.03387,0.1905 0,0.182034 -0.0889,0.296334 -0.08678,0.112184 -0.258234,0.1524 z m 0.373592,-0.797984 q 0,0.09525 0.03598,0.175683 0.03598,0.08043 0.09737,0.139701 0.06138,0.05927 0.141817,0.09313 0.08255,0.03175 0.173567,0.03175 0.09102,0 0.17145,-0.03175 0.08255,-0.03387 0.143934,-0.09313 0.0635,-0.05927 0.09948,-0.139701 0.03598,-0.08043 0.03598,-0.175683 0,-0.09525 -0.03598,-0.175684 -0.03598,-0.08043 -0.09948,-0.1397 -0.06138,-0.05927 -0.143934,-0.09102 -0.08043,-0.03387 -0.17145,-0.03387 -0.09102,0 -0.173567,0.03387 -0.08043,0.03175 -0.141817,0.09102 -0.06138,0.05927 -0.09737,0.1397 -0.03598,0.08043 -0.03598,0.175684 z m -0.433917,0 q 0,-0.1778 0.06562,-0.330201 0.06562,-0.154517 0.182034,-0.268817 0.116417,-0.1143 0.277284,-0.1778 0.162983,-0.06562 0.357717,-0.06562 0.192617,0 0.3556,0.06562 0.162984,0.0635 0.279401,0.1778 0.118533,0.1143 0.18415,0.268817 0.06562,0.152401 0.06562,0.330201 0,0.1778 -0.06562,0.332317 -0.06562,0.1524 -0.18415,0.2667 -0.116417,0.114301 -0.279401,0.179917 -0.162983,0.0635 -0.3556,0.0635 -0.194734,0 -0.357717,-0.0635 -0.160867,-0.06562 -0.277284,-0.179917 -0.116417,-0.1143 -0.182034,-0.2667 -0.06562,-0.154517 -0.06562,-0.332317 z"
       id="text3-0"
       style="font-weight:bold;font-size:2.11667px;line-height:1.25;font-family:Futura;-inkscape-font-specification:'Futura, Bold';font-variant-ligatures:none;letter-spacing:-0.132292px;baseline-shift:baseline;fill:#514c45;stroke:#d9d4c6;stroke-width:0.15"
       aria-label="POLE/ZERO" />
    <path
       d="m 17.328873,93.613758 h 0.09102 q 0.156634,0 0.224367,-0.04022 0.06773,-0.04022 0.06773,-0.129116 0,-0.0889 -0.06773,-0.129117 -0.06773,-0.04022 -0.224367,-0.04022 h -0.09102 z m 0,-0.647701 h 0.0762 q 0.194734,0 0.194734,-0.154517 0,-0.154517 -0.194734,-0.154517 h -0.0762 z m -0.414867,-0.626534 h 0.618067 q 0.220134,0 0.334434,0.105833 0.1143,0.105834 0.1143,0.304801 0,0.12065 -0.04445,0.201084 -0.04233,0.07832 -0.131233,0.13335 0.0889,0.01693 0.150283,0.05292 0.0635,0.03387 0.101601,0.08467 0.04022,0.0508 0.05715,0.1143 0.01693,0.0635 0.01693,0.135467 0,0.112184 -0.04022,0.198967 -0.0381,0.08678 -0.110067,0.146051 -0.06985,0.05927 -0.17145,0.0889 -0.1016,0.02963 -0.2286,0.02963 H 16.914 Z m 1.681692,0.797984 q 0,0.09525 0.03598,0.175684 0.03598,0.08043 0.09737,0.1397 0.06138,0.05927 0.141817,0.09313 0.08255,0.03175 0.173567,0.03175 0.09102,0 0.17145,-0.03175 0.08255,-0.03387 0.143934,-0.09313 0.0635,-0.05927 0.09948,-0.1397 0.03598,-0.08043 0.03598,-0.175684 0,-0.09525 -0.03598,-0.175683 -0.03598,-0.08043 -0.09948,-0.1397 -0.06138,-0.05927 -0.143934,-0.09102 -0.08043,-0.03387 -0.17145,-0.03387 -0.09102,0 -0.173567,0.03387 -0.08043,0.03175 -0.141817,0.09102 -0.06138,0.05927 -0.09737,0.1397 -0.03598,0.08043 -0.03598,0.175683 z m -0.433918,0 q 0,-0.1778 0.06562,-0.3302 0.06562,-0.154517 0.182034,-0.268817 0.116417,-0.1143 0.277283,-0.1778 0.162984,-0.06562 0.357718,-0.06562 0.192617,0 0.3556,0.06562 0.162984,0.0635 0.279401,0.1778 0.118533,0.1143 0.18415,0.268817 0.06562,0.1524 0.06562,0.3302 0,0.177801 -0.06562,0.332318 -0.06562,0.1524 -0.18415,0.2667 -0.116417,0.1143 -0.279401,0.179917 -0.162983,0.0635 -0.3556,0.0635 -0.194734,0 -0.357718,-0.0635 -0.160866,-0.06562 -0.277283,-0.179917 -0.116417,-0.1143 -0.182034,-0.2667 -0.06562,-0.154517 -0.06562,-0.332318 z m 2.312461,0.446618 h 0.09525 q 0.10795,0 0.192617,-0.03387 0.08467,-0.03387 0.141817,-0.09313 0.05927,-0.05927 0.0889,-0.139701 0.03175,-0.08255 0.03175,-0.179917 0,-0.09525 -0.03175,-0.1778 -0.03175,-0.08255 -0.09102,-0.141817 -0.05715,-0.05927 -0.141817,-0.09313 -0.08467,-0.03387 -0.1905,-0.03387 h -0.09525 z m -0.414868,-1.244602 h 0.613835 q 0.162983,0 0.3048,0.06562 0.143934,0.06562 0.249767,0.175683 0.10795,0.10795 0.169334,0.254001 0.06138,0.143933 0.06138,0.302683 0,0.156634 -0.06138,0.302684 -0.05927,0.143934 -0.167217,0.254001 -0.105834,0.110067 -0.249767,0.175683 -0.141817,0.06562 -0.306917,0.06562 h -0.613835 z m 2.439461,0.351367 H 22.00565 v 0.266701 h 0.465667 v 0.351367 H 22.00565 v 0.275167 h 0.493184 v 0.351367 h -0.908052 v -1.595969 h 0.908052 z"
       id="text10-6"
       style="font-weight:bold;font-size:2.11667px;line-height:1.25;font-family:Futura;-inkscape-font-specification:'Futura, Bold';font-variant-ligatures:none;letter-spacing:-0.132292px;baseline-shift:baseline;fill:#514c45;stroke:#d9d4c6;stroke-width:0.15"
       aria-label="BODE" />
  </g>
  <g
     inkscape:groupmode="layer"
     id="layer4"
     inkscape:label="knob scales"
     style="display:inline" />
  <g
     inkscape:label="Graphics"
     inkscape:groupmode="layer"
     id="g1"
     style="display:inline">
    <rect
       style="fill:#8b8c8a;fill-opacity:1;stroke:#4e4e4e;stroke-width:2;stroke-dasharray:none;stroke-opacity:1;opacity:0.78403141"
       id="rect1"
       width="63"
       height="63"
       x="4"
       y="13.499995"
       rx="0.40000001"
       ry="0.89998454" />
    <path
       id="rect1-4"
       style="display:inline;opacity:0.75;fill:url(#linearGradient20);stroke:none;stroke-width:0.5;stroke-dasharray:none;stroke-opacity:1"
       d="M 35.448385,44.947608 3.2320984,12.28923 c -0.101761,0.160744 -0.172239,0.413821 -0.172239,0.716041 V 76.99523 c 0,0.236554 0.042429,0.44764 0.1088721,0.606668 z" />
    <path
       id="path19"
       style="display:inline;opacity:0.75;fill:url(#linearGradient26);stroke:none;stroke-width:0.5;stroke-dasharray:none;stroke-opacity:1"
       d="M 35.448385,44.947608 3.1687315,77.601898 c 0.0721,0.172481 0.172684,0.283146 0.2867188,0.283146 H 67.544561 c 0.08489,0 0.159046,-0.07264 0.223348,-0.174283 z" />
    <path
       id="path16"
       style="display:inline;opacity:0.75;fill:url(#linearGradient22);stroke:none;stroke-width:0.5;stroke-dasharray:none;stroke-opacity:1"
       d="m 67.753597,12.267764 c -0.06146,-0.08837 -0.130392,-0.152818 -0.209036,-0.152818 H 3.4554503 c -0.084858,0 -0.1590652,0.07274 -0.2233519,0.174284 L 35.448385,44.947608 Z" />
    <path
       id="path18"
       style="font-variation-settings:normal;display:inline;opacity:0.75;vector-effect:none;fill:url(#linearGradient27);fill-opacity:1;stroke:none;stroke-width:0.5;stroke-linecap:butt;stroke-linejoin:miter;stroke-miterlimit:4;stroke-dasharray:none;stroke-dashoffset:0;stroke-opacity:1;-inkscape-stroke:none;stop-color:#000000"
       d="M 67.753597,12.267764 35.448385,44.947608 67.767909,77.710761 c 0.101706,-0.160762 0.172238,-0.413414 0.172238,-0.715531 V 13.005271 c 0,-0.316173 -0.07673,-0.57961 -0.18655,-0.737507 z" />
  </g>
  <g
     inkscape:label="components"
     inkscape:groupmode="layer"
     id="layer1"
     style="display:none">
    <ellipse
       id="ellipse8"
       data-name="Tempo#RoundLargeBlackKnob"
       cx="41.756596"
       cy="90.524727"
       style="display:inline;opacity:0.99;fill:#ff0000;stroke-width:0.264583"
       inkscape:label="SCOPE_SCALE_PARAM"
       rx="1.323"
       ry="1.3229166" />
    <rect
       id="rect12400"
       data-name="Screen"
       y="14.999995"
       width="60"
       height="60"
       x="5.5"
       style="display:inline;opacity:0.99;fill:#ffff00;stroke-width:0.0721269"
       inkscape:label="OUT_TWO_TEXT" />
  </g>
</svg>
