<?xml version="1.0" encoding="UTF-8" standalone="no"?>
<!-- Created with Inkscape (http://www.inkscape.org/) -->

<svg
   width="10mm"
   height="10mm"
   viewBox="0 0 10 10"
   version="1.1"
   id="svg1"
   inkscape:version="1.4 (e7c3feb1, 2024-10-09)"
   sodipodi:docname="ZKnobMedium.svg"
   xmlns:inkscape="http://www.inkscape.org/namespaces/inkscape"
   xmlns:sodipodi="http://sodipodi.sourceforge.net/DTD/sodipodi-0.dtd"
   xmlns:xlink="http://www.w3.org/1999/xlink"
   xmlns="http://www.w3.org/2000/svg"
   xmlns:svg="http://www.w3.org/2000/svg">
  <sodipodi:namedview
     id="namedview1"
     pagecolor="#ffffff"
     bordercolor="#666666"
     borderopacity="1.0"
     inkscape:showpageshadow="2"
     inkscape:pageopacity="0.0"
     inkscape:pagecheckerboard="0"
     inkscape:deskcolor="#d1d1d1"
     inkscape:document-units="mm"
     inkscape:zoom="16.829454"
     inkscape:cx="15.330266"
     inkscape:cy="19.57877"
     inkscape:window-width="1440"
     inkscape:window-height="902"
     inkscape:window-x="73"
     inkscape:window-y="75"
     inkscape:window-maximized="0"
     inkscape:current-layer="svg1"
     showgrid="false" />
  <defs
     id="defs1">
    <linearGradient
       id="linearGradient36"
       inkscape:collect="always">
      <stop
         style="stop-color:#0f0f0f;stop-opacity:1;"
         offset="0.34724301"
         id="stop35" />
      <stop
         style="stop-color:#30302d;stop-opacity:1;"
         offset="0.84202683"
         id="stop36" />
    </linearGradient>
    <linearGradient
       id="linearGradient22"
       inkscape:collect="always">
      <stop
         style="stop-color:#0f0f0f;stop-opacity:1;"
         offset="0.34724301"
         id="stop22" />
      <stop
         style="stop-color:#262626;stop-opacity:1;"
         offset="0.84202683"
         id="stop23" />
    </linearGradient>
    <radialGradient
       inkscape:collect="always"
       xlink:href="#linearGradient36"
       id="radialGradient23"
       cx="4.0000143"
       cy="4.0000143"
       fx="4.0000143"
       fy="4.0000143"
       r="3.3499248"
       gradientUnits="userSpaceOnUse" />
    <radialGradient
       inkscape:collect="always"
       xlink:href="#linearGradient22"
       id="radialGradient23-6"
       cx="4.0000143"
       cy="4.0000143"
       fx="4.0000143"
       fy="4.0000143"
       r="3.3499248"
       gradientUnits="userSpaceOnUse"
       gradientTransform="translate(9.2319107)" />
  </defs>
  <g
     inkscape:label="dial"
     inkscape:groupmode="layer"
     id="layer1"
     style="display:inline" />
  <path
     id="path23"
     style="font-variation-settings:normal;opacity:1;vector-effect:none;fill:url(#radialGradient23);fill-opacity:1;stroke:#505050;stroke-width:0.0499999;stroke-linecap:butt;stroke-linejoin:round;stroke-miterlimit:4;stroke-dasharray:none;stroke-dashoffset:0;stroke-opacity:1;-inkscape-stroke:none;stop-color:#000000;stop-opacity:1"
     d="M 4.6892434,0.02500001 V 0.29622934 A 4.7262333,4.7262333 0 0 0 4.0825126,0.3752843 L 4.0124561,0.11433863 3.4121525,0.2750195 3.4822089,0.53467975 A 4.7262333,4.7262333 0 0 0 2.915327,0.7673455 L 2.7816405,0.53596516 2.2430383,0.84704322 2.3754393,1.0758527 A 4.7262333,4.7262333 0 0 0 1.8863269,1.4467041 L 1.7018652,1.2622426 1.2622426,1.7018652 1.4467041,1.8863269 A 4.7262333,4.7262333 0 0 0 1.0758527,2.3754393 L 0.84704322,2.2430383 0.53596516,2.7816405 0.7673455,2.915327 A 4.7262333,4.7262333 0 0 0 0.53467975,3.4822089 L 0.27501937,3.4121525 0.11433863,4.0124561 0.3752843,4.0825126 A 4.7262333,4.7262333 0 0 0 0.2962293,4.6892434 H 0.02500001 v 0.6215135 h 0.27122933 a 4.7262333,4.7262333 0 0 0 0.079055,0.6067308 L 0.11433863,5.9875442 0.2750195,6.5878478 0.53467975,6.5177913 A 4.7262333,4.7262333 0 0 0 0.7673455,7.0846733 L 0.53596516,7.2183598 0.84704322,7.7569619 1.0758527,7.624561 A 4.7262333,4.7262333 0 0 0 1.4467041,8.1136734 L 1.2622426,8.2981351 1.7018652,8.737758 1.8863269,8.5532962 A 4.7262333,4.7262333 0 0 0 2.3754393,8.9241477 L 2.2430383,9.1529571 2.7816405,9.4640352 2.915327,9.2326548 a 4.7262333,4.7262333 0 0 0 0.5668819,0.232666 L 3.4121525,9.7249809 4.0124561,9.8856616 4.0825126,9.624716 A 4.7262333,4.7262333 0 0 0 4.6892434,9.703771 V 9.9750004 H 5.3107569 V 9.7037711 A 4.7262333,4.7262333 0 0 0 5.9174877,9.6247161 L 5.9875445,9.8856616 6.5878482,9.7249809 6.5177913,9.4653208 a 4.7262333,4.7262333 0 0 0 0.566882,-0.232666 L 7.2183598,9.4640352 7.7569619,9.1529571 7.624561,8.9241477 A 4.7262333,4.7262333 0 0 0 8.1136734,8.5532962 L 8.2981351,8.737758 8.737758,8.2981351 8.5532962,8.1136734 A 4.7262333,4.7262333 0 0 0 8.9241477,7.624561 L 9.1529571,7.7569619 9.4640352,7.2183598 9.2326548,7.0846733 a 4.7262333,4.7262333 0 0 0 0.232666,-0.566882 L 9.7249809,6.5878482 9.8856616,5.9875445 9.6247161,5.9174877 A 4.7262333,4.7262333 0 0 0 9.7037711,5.3107569 H 9.9750004 V 4.6892434 H 9.7146974 A 4.7262333,4.7262333 0 0 0 9.6356424,4.0792989 L 9.8856616,4.0124557 9.7249809,3.4121521 9.473676,3.479638 A 4.7262333,4.7262333 0 0 0 9.2384394,2.9121133 L 9.4640352,2.7816405 9.1529571,2.2430383 8.9286468,2.3722257 A 4.7262333,4.7262333 0 0 0 8.553939,1.8856841 L 8.737758,1.7018652 8.2981351,1.2622426 8.1143162,1.4460613 A 4.7262333,4.7262333 0 0 0 7.6277746,1.0713537 L 7.7569619,0.84704322 7.2183598,0.53596516 7.0878869,0.76156108 A 4.7262333,4.7262333 0 0 0 6.5203622,0.52632426 L 6.5878478,0.2750195 5.9875442,0.11433863 5.9207003,0.36435799 A 4.7262333,4.7262333 0 0 0 5.3107569,0.28530303 V 0.02500001 Z M 4.9996788,0.3360782 A 4.664046,4.664046 0 0 1 9.6639223,4.9996788 4.664046,4.664046 0 0 1 4.9996788,9.6639223 4.664046,4.664046 0 0 1 0.3360782,4.9996788 4.664046,4.664046 0 0 1 4.9996788,0.3360782 Z" />
  <rect
     style="fill:#c4c4c6;fill-opacity:1;stroke:#0c0c0d;stroke-width:0.05;stroke-linejoin:round;stroke-dasharray:none;stroke-opacity:1"
     id="rect1"
     width="0.5"
     height="4.9230881"
     x="4.75"
     y="0.079477526" />
</svg>
